<svg viewBox="0 0 96 96" xmlns="http://www.w3.org/2000/svg" xmlns:xlink="http://www.w3.org/1999/xlink" id="Icons_Dumbbell" overflow="hidden"><g><path d="M4 48C4 50.2 5.8 52 8 52L8 44C5.8 44 4 45.8 4 48Z" fill="#45B549"/><path d="M88 44 88 52C90.2 52 92 50.2 92 48 92 45.8 90.2 44 88 44Z" fill="#45B549"/><path d="M15 33 14 33C11.8 33 10 34.8 10 37L10 59C10 61.2 11.8 63 14 63L15 63C17.2 63 19 61.2 19 59L19 37C19 34.8 17.2 33 15 33Z" fill="#45B549"/><path d="M82 33 81 33C78.8 33 77 34.8 77 37L77 59C77 61.2 78.8 63 81 63L82 63C84.2 63 86 61.2 86 59L86 37C86 34.8 84.2 33 82 33Z" fill="#45B549"/><path d="M71 24 69 24C66.8 24 65 25.8 65 28L65 42 31 42 31 28C31 25.8 29.2 24 27 24L25 24C22.8 24 21 25.8 21 28L21 68C21 70.2 22.8 72 25 72L27 72C29.2 72 31 70.2 31 68L31 54 65 54 65 68C65 70.2 66.8 72 69 72L71 72C73.2 72 75 70.2 75 68L75 28C75 25.8 73.2 24 71 24Z" fill="#45B549"/></g></svg>